<?xml version="1.0" encoding="UTF-8" standalone="no"?>
<!-- Creator: fig2dev Version 3.2.7b-dev -->
<!-- CreationDate: 2020-07-10 10:26:02 -->
<!-- Magnification: 1 -->
<svg	xmlns="http://www.w3.org/2000/svg"
	xmlns:xlink="http://www.w3.org/1999/xlink"
	width="458pt" height="312pt"
	viewBox="885 525 7628 5190">
<g fill="none">
<!-- Line -->
<rect x="1125" y="825" width="1275" height="2025"
	stroke="#000000" stroke-width="8px"/>
<!-- Line -->
<defs>
<clipPath id="cp0">
	<path clip-rule="evenodd" d="M 885,525 H 8513 V 5715 H 885 z
		M 5039,1170 5039,1230 5182,1207 5182,1193z"/>
</clipPath>
</defs>
<polyline points=" 2400,1200 5175,1200" clip-path="url(#cp0)"
	stroke="#000000" stroke-width="8px"/>
<!-- Forward arrow to point 5175,1200 -->
<polygon points=" 5039,1230 5159,1200 5039,1170 5039,1230"
	stroke="#000000" stroke-width="8px" stroke-miterlimit="8" fill="#000000"/>
<!-- Line -->
<defs>
<clipPath id="cp1">
	<path clip-rule="evenodd" d="M 885,525 H 8513 V 5715 H 885 z
		M 5053,1957 5036,2015 5180,2033 5183,2020z"/>
</clipPath>
</defs>
<polyline points=" 2400,1200 5175,2025" clip-path="url(#cp1)"
	stroke="#000000" stroke-width="8px"/>
<!-- Forward arrow to point 5175,2025 -->
<polygon points=" 5036,2015 5159,2020 5053,1957 5036,2015"
	stroke="#000000" stroke-width="8px" stroke-miterlimit="8" fill="#000000"/>
<!-- Line -->
<rect x="5175" y="975" width="750" height="525" rx="105"
	stroke="#000000" stroke-width="8px"/>
<!-- Line -->
<rect x="5175" y="1875" width="750" height="525" rx="105"
	stroke="#000000" stroke-width="8px"/>
<!-- Line -->
<rect x="1500" y="4500" width="900" height="750" rx="105"
	stroke="#000000" stroke-width="8px"/>
<!-- Line -->
<defs>
<clipPath id="cp2">
	<path clip-rule="evenodd" d="M 885,525 H 8513 V 5715 H 885 z
		M 1845,2986 1905,2986 1882,2843 1868,2843z"/>
</clipPath>
</defs>
<polyline points=" 1875,4725 1875,2850" clip-path="url(#cp2)"
	stroke="#000000" stroke-width="8px"/>
<!-- Forward arrow to point 1875,2850 -->
<polygon points=" 1905,2986 1875,2866 1845,2986 1905,2986"
	stroke="#000000" stroke-width="8px" stroke-miterlimit="8" fill="#000000"/>
<!-- Line -->
<defs>
<clipPath id="cp3">
	<path clip-rule="evenodd" d="M 885,525 H 8513 V 5715 H 885 z
		M 2524,4436 2485,4390 2390,4499 2399,4510z"/>
</clipPath>
</defs>
<polyline points=" 5175,2175 2400,4500" clip-path="url(#cp3)"
	stroke="#000000" stroke-width="8px"/>
<!-- Forward arrow to point 2400,4500 -->
<polygon points=" 2485,4390 2412,4490 2524,4436 2485,4390"
	stroke="#000000" stroke-width="8px" stroke-miterlimit="8" fill="#000000"/>
<!-- Line -->
<defs>
<clipPath id="cp4">
	<path clip-rule="evenodd" d="M 885,525 H 8513 V 5715 H 885 z
		M 2513,4418 2468,4378 2390,4501 2401,4510z"/>
</clipPath>
</defs>
<polyline points=" 5175,1350 2400,4500" clip-path="url(#cp4)"
	stroke="#000000" stroke-width="8px"/>
<!-- Forward arrow to point 2400,4500 -->
<polygon points=" 2468,4378 2411,4488 2513,4418 2468,4378"
	stroke="#000000" stroke-width="8px" stroke-miterlimit="8" fill="#000000"/>
<!-- Line -->
<defs>
<clipPath id="cp5">
	<path clip-rule="evenodd" d="M 885,525 H 8513 V 5715 H 885 z
		M 6689,1170 6689,1230 6832,1207 6832,1193z"/>
</clipPath>
</defs>
<polyline points=" 5925,1200 6825,1200" clip-path="url(#cp5)"
	stroke="#000000" stroke-width="8px"/>
<!-- Forward arrow to point 6825,1200 -->
<polygon points=" 6689,1230 6809,1200 6689,1170 6689,1230"
	stroke="#000000" stroke-width="8px" stroke-miterlimit="8" fill="#000000"/>
<!-- Line -->
<defs>
<clipPath id="cp6">
	<path clip-rule="evenodd" d="M 885,525 H 8513 V 5715 H 885 z
		M 6689,2070 6689,2130 6832,2107 6832,2093z"/>
</clipPath>
</defs>
<polyline points=" 5925,2100 6825,2100" clip-path="url(#cp6)"
	stroke="#000000" stroke-width="8px"/>
<!-- Forward arrow to point 6825,2100 -->
<polygon points=" 6689,2130 6809,2100 6689,2070 6689,2130"
	stroke="#000000" stroke-width="8px" stroke-miterlimit="8" fill="#000000"/>
<!-- Line -->
<rect x="3900" y="4650" width="2850" height="225"
	stroke="#000000" stroke-width="8px"/>
<!-- Line -->
<polyline points=" 4200,4650 4200,4875"
	stroke="#000000" stroke-width="8px"/>
<!-- Line -->
<polyline points=" 4500,4650 4500,4875"
	stroke="#000000" stroke-width="8px"/>
<!-- Line -->
<polyline points=" 4725,4650 4725,4875"
	stroke="#000000" stroke-width="8px"/>
<!-- Line -->
<polyline points=" 6450,4650 6450,4875"
	stroke="#000000" stroke-width="8px"/>
<!-- Line -->
<polyline points=" 6150,4650 6150,4875"
	stroke="#000000" stroke-width="8px"/>
<!-- Line -->
<defs>
<clipPath id="cp7">
	<path clip-rule="evenodd" d="M 885,525 H 8513 V 5715 H 885 z
		M 5174,1617 5231,1638 5259,1496 5246,1491z"/>
</clipPath>
</defs>
<polyline points=" 4050,4725 5250,1500" clip-path="url(#cp7)"
	stroke="#000000" stroke-width="8px"/>
<!-- Forward arrow to point 5250,1500 -->
<polygon points=" 5231,1638 5244,1515 5174,1617 5231,1638"
	stroke="#000000" stroke-width="8px" stroke-miterlimit="8" fill="#000000"/>
<!-- Line -->
<defs>
<clipPath id="cp8">
	<path clip-rule="evenodd" d="M 885,525 H 8513 V 5715 H 885 z
		M 5173,2516 5229,2538 5259,2396 5246,2391z"/>
</clipPath>
</defs>
<polyline points=" 4350,4725 5250,2400" clip-path="url(#cp8)"
	stroke="#000000" stroke-width="8px"/>
<!-- Forward arrow to point 5250,2400 -->
<polygon points=" 5229,2538 5244,2415 5173,2516 5229,2538"
	stroke="#000000" stroke-width="8px" stroke-miterlimit="8" fill="#000000"/>
<!-- Line -->
<defs>
<clipPath id="cp9">
	<path clip-rule="evenodd" d="M 885,525 H 8513 V 5715 H 885 z
		M 3764,4770 3764,4830 3907,4807 3907,4793z"/>
</clipPath>
</defs>
<polyline points=" 2250,4800 3900,4800" clip-path="url(#cp9)"
	stroke="#000000" stroke-width="8px"/>
<!-- Forward arrow to point 3900,4800 -->
<polygon points=" 3764,4830 3884,4800 3764,4770 3764,4830"
	stroke="#000000" stroke-width="8px" stroke-miterlimit="8" fill="#000000"/>
<!-- Text -->
<text xml:space="preserve" x="1275" y="1125" fill="#000000" font-family="Times" font-style="normal" font-weight="normal" font-size="216" text-anchor="start">Domains</text>
<!-- Text -->
<text xml:space="preserve" x="1275" y="1440" fill="#000000" font-family="Times" font-style="normal" font-weight="normal" font-size="216" text-anchor="start">hash </text>
<!-- Text -->
<text xml:space="preserve" x="4725" y="750" fill="#000000" font-family="Times" font-style="normal" font-weight="normal" font-size="216" text-anchor="start">virDomainPtr</text>
<!-- Text -->
<text xml:space="preserve" x="975" y="5700" fill="#000000" font-family="Times" font-style="normal" font-weight="normal" font-size="216" text-anchor="start">virConnectionPtr</text>
<!-- Text -->
<text xml:space="preserve" x="900" y="4200" fill="#000000" font-family="Times" font-style="normal" font-weight="normal" font-size="216" text-anchor="start">domains</text>
<!-- Text -->
<text xml:space="preserve" x="3450" y="2475" fill="#000000" font-family="Times" font-style="normal" font-weight="normal" font-size="216" text-anchor="start">conn</text>
<!-- Text -->
<text xml:space="preserve" x="6075" y="1050" fill="#000000" font-family="Times" font-style="normal" font-weight="normal" font-size="216" text-anchor="start">name</text>
<!-- Text -->
<text xml:space="preserve" x="6975" y="1275" fill="#000000" font-family="Times" font-style="normal" font-weight="normal" font-size="216" text-anchor="start">"Domain-0"</text>
<!-- Text -->
<text xml:space="preserve" x="6975" y="2175" fill="#000000" font-family="Times" font-style="normal" font-weight="normal" font-size="216" text-anchor="start">"fc4"</text>
<!-- Text -->
<text xml:space="preserve" x="1275" y="1755" fill="#000000" font-family="Times" font-style="normal" font-weight="normal" font-size="216" text-anchor="start">table</text>
<!-- Text -->
<text xml:space="preserve" x="1275" y="2385" fill="#000000" font-family="Times" font-style="normal" font-weight="normal" font-size="216" text-anchor="start">name</text>
<!-- Text -->
<text xml:space="preserve" x="1275" y="2070" fill="#000000" font-family="Times" font-style="normal" font-weight="normal" font-size="216" text-anchor="start">based on</text>
<!-- Text -->
<text xml:space="preserve" x="2850" y="5100" fill="#000000" font-family="Times" font-style="normal" font-weight="normal" font-size="216" text-anchor="start">ids</text>
</g>
</svg>
